# xmcd CD database file
#
# Track frame offsets:
#	150
#	7680
#	33027
#	65712
#	88887
#	97256
#	129261
#	153019
#
# Disc length: 2690 seconds
#
# Revision: 0
# Processed by: cddbd v1.5.2PL0 Copyright (c) Steve Scherf et al.
# Submitted via: CDex 1.72
#
DISCID=560a8008
DTITLE=Laurent Coulondre Trio - Schizophrenia
DYEAR=2015
DGENRE=Jazz
TTITLE0=Prelude to schizophrenia
TTITLE1=Schizophrenia
TTITLE2=Palma's Waltz
TTITLE3=Sunny road trip
TTITLE4=Spring Bloom
TTITLE5=Parallel spaces
TTITLE6=Bouncing peanuts
TTITLE7=Fun keys
EXTD=YEAR: 2015
EXTT0=
EXTT1=
EXTT2=
EXTT3=
EXTT4=
EXTT5=
EXTT6=
EXTT7=
PLAYORDER=
